<?xml version="1.0" encoding="UTF-8"?>
<svg width="980px" height="840px" viewBox="0 0 980 840" version="1.1" xmlns="http://www.w3.org/2000/svg" xmlns:xlink="http://www.w3.org/1999/xlink">
    <!-- Generator: Sketch 52.6 (67491) - http://www.bohemiancoding.com/sketch -->
    <title>Path</title>
    <desc>Created with Sketch.</desc>
    <g id="Page-1" stroke="none" stroke-width="1" fill="none" fill-rule="evenodd">
        <g id="289c80c54dca09491903cb8b65e5242e" fill="#DA4236">
            <path d="M370.5,20.5 L20.5,370.5 C-6.8,397.8 -6.8,442.1 20.5,469.5 L370.5,819.5 C397.8,846.8 442.1,846.8 469.5,819.5 C496.8,792.2 496.8,747.9 469.5,720.5 L239,490 L910,490 C948.7,490 980,458.7 980,420 C980,381.3 948.7,350 910,350 L239,350 L469.5,119.5 C483.2,105.8 490,87.9 490,70 C490,52.1 483.2,34.2 469.5,20.5 C442.1,-6.8 397.8,-6.8 370.5,20.5 Z" id="Path" transform="translate(490.012500, 420.000000) scale(-1, 1) translate(-490.012500, -420.000000) "></path>
        </g>
    </g>
</svg>